<?xml version="1.0" encoding="UTF-8"?>
<svg xmlns="http://www.w3.org/2000/svg" xmlns:xlink="http://www.w3.org/1999/xlink" width="50px" height="50px" viewBox="0 0 50 50" version="1.1">
<g id="surface1">
<path style=" stroke:none;fill-rule:evenodd;fill:rgb(80.000001%,80.000001%,80.000001%);fill-opacity:1;" d="M 24.660156 1.1875 L 24.867188 1.1875 C 30.824219 1.1875 35.652344 6.015625 35.652344 11.972656 C 35.652344 17.929688 30.824219 22.757812 24.867188 22.757812 L 24.660156 22.757812 C 18.703125 22.757812 13.875 17.929688 13.875 11.972656 C 13.875 6.015625 18.703125 1.1875 24.660156 1.1875 Z M 47.714844 46.378906 L 47.714844 39.269531 C 47.714844 39.269531 39.394531 30.003906 25.855469 30.003906 C 25.5 30.003906 25.132812 30.015625 24.773438 30.027344 C 24.417969 30.015625 24.058594 30.003906 23.691406 30.003906 C 10.140625 30.003906 1.832031 39.269531 1.832031 39.269531 L 1.832031 47.117188 L 47.714844 47.117188 Z M 47.714844 46.378906 "/>
</g>
</svg>
